<?xml version="1.0" encoding="utf-8"?>
<!-- Generator: Adobe Illustrator 22.0.0, SVG Export Plug-In . SVG Version: 6.00 Build 0)  -->
<svg version="1.1" id="Layer_1" xmlns="http://www.w3.org/2000/svg" xmlns:xlink="http://www.w3.org/1999/xlink" x="0px" y="0px"
	 viewBox="0 0 257.3 283" style="enable-background:new 0 0 257.3 283;" xml:space="preserve">
<style type="text/css">
	.st0{fill:#FFFFFF;}
</style>
<path class="st0" d="M178.3,36.4c44.2,17.2,85.2,67.8,78.3,132c-7.1,66.1-63.3,115.3-128.3,115C64.6,283,9.6,235.3,1.3,173.2
	C-8,103.7,36.5,52.7,78.8,36.5c0.1,1,0.3,1.9,0.3,2.8c0,14.9,0.1,29.7-0.1,44.6c0,1.7-1.1,3.8-2.4,4.9c-26.6,21.2-38,55.5-29,88
	c9,32.7,36.6,56.8,69.9,61.3c37.5,5,73.8-15.7,88.7-50.7c14.7-34.7,4.4-74.9-25.2-98.3c-1.9-1.5-2.8-3.1-2.8-5.6
	c0.1-14.5,0.1-29,0.1-43.5C178.3,39,178.3,37.9,178.3,36.4z"/>
<path class="st0" d="M149.7,163.9c-14.2,0-27.9,0-41.9,0c0-54.6,0-109.1,0-163.9c13.8,0,27.7,0,41.9,0
	C149.7,54.6,149.7,109.1,149.7,163.9z"/>
</svg>
