<?xml version="1.0" encoding="utf-8"?>
<!-- Generator: Adobe Illustrator 22.0.0, SVG Export Plug-In . SVG Version: 6.00 Build 0)  -->
<svg version="1.1" id="Layer_1" xmlns="http://www.w3.org/2000/svg" xmlns:xlink="http://www.w3.org/1999/xlink" x="0px" y="0px"
	 viewBox="0 0 370.1 398.4" style="enable-background:new 0 0 370.1 398.4;" xml:space="preserve">
<style type="text/css">
	.st0{fill:#FFFFFF;}
</style>
<path class="st0" d="M184.3,396.4c-8.4-1.3-16.9-2.1-25.2-3.9c-32.8-6.9-61-22.5-84.7-46c-25.5-25.3-41.5-55.7-48.1-91.1
	c-2.5-13.7,3.4-24.8,15.7-28.9c12.7-4.2,26.4,3.5,29.9,16.4C75,254,77.4,265.5,82,276c13.1,29.9,35.3,51.2,65.4,63.7
	c32.1,13.3,64.6,13.1,96.6-0.8c29.6-12.9,51-34.5,64.3-63.9c7.7-17,11.2-34.9,10.5-53.5c-1.2-31.3-12.4-58.6-33.9-81.4
	c-20.3-21.5-45.5-33.9-74.8-38c-4.2-0.6-8.6-0.6-13.3-0.9c0,1.7,0,3.1,0,4.4c0,13.1,0.1,26.3-0.1,39.4c0,1.6-0.7,3.9-1.9,4.5
	c-1.1,0.6-3.5-0.2-4.7-1.1c-30.8-22.5-61.5-45-92.2-67.6c-3.5-2.5-3.4-4.2,0.1-6.8c30.6-22.5,61.2-45,91.9-67.4c1.3-1,3.7-1.7,5-1.2
	c1,0.4,1.7,2.9,1.7,4.5c0.1,13.1,0.1,26.3,0.1,39.4c0,1.4,0,2.7,0,3.8c10,1.2,19.5,1.8,28.9,3.6c70.6,13,125.6,67.7,137.6,138.4
	c10.3,61-7.8,113.3-52.7,156c-23,21.9-50.6,35.3-81.5,41.8c-6.3,1.3-12.8,1.8-19.3,2.7c-1.1,0.2-2.2,0.5-3.3,0.7
	C199.1,396.4,191.7,396.4,184.3,396.4z"/>
</svg>
