<?xml version="1.0" encoding="utf-8"?>
<!-- Generator: Adobe Illustrator 22.0.0, SVG Export Plug-In . SVG Version: 6.00 Build 0)  -->
<svg version="1.1" id="Layer_1" xmlns="http://www.w3.org/2000/svg" xmlns:xlink="http://www.w3.org/1999/xlink" x="0px" y="0px"
	 viewBox="0 0 234.9 395.6" style="enable-background:new 0 0 234.9 395.6;" xml:space="preserve">
<style type="text/css">
	.st0{fill:#4ADE80;}
</style>
<path class="st0" d="M41,1.1c7.1,2.2,12.1,7.2,17.1,12.3l167.4,167.4c8.5,8.5,10.3,18.5,5.1,27.8c-1.3,2.3-3,4.1-4.8,5.9
	c-57.5,57.5-114.9,115-172.4,172.4c-10.5,10.5-23,10.5-33.5,0.1c-4.3-4.2-8.7-8.4-12.6-12.9c-7.1-8.3-6.7-19.8,0.5-28
	c1.1-1.3,2.3-2.4,3.5-3.6c47.1-47.1,94.2-94.3,141.4-141.2c2.9-2.9,2.4-4.1-0.2-6.7C105.1,147.1,57.7,99.7,10.4,52.3
	c-9-8.9-10.9-21-3.7-29.3c7.4-8.6,14.5-17.9,25.9-22C35.4,1.1,38.2,1.1,41,1.1L41,1.1z"/>
</svg>
