<?xml version="1.0" standalone="no"?>
<!DOCTYPE svg PUBLIC "-//W3C//DTD SVG 20010904//EN"
 "http://www.w3.org/TR/2001/REC-SVG-20010904/DTD/svg10.dtd">
<svg version="1.0" xmlns="http://www.w3.org/2000/svg"
 width="460.000000pt" height="460.000000pt" viewBox="0 0 460.000000 460.000000"
 preserveAspectRatio="xMidYMid meet">
<metadata>
Created by potrace 1.14, written by Peter Selinger 2001-2017
</metadata>
<g transform="translate(0.000000,460.000000) scale(0.100000,-0.100000)"
fill="#000000" stroke="none">
<path d="M2167 4550 c-683 -44 -1233 -322 -1672 -845 -338 -403 -495 -843
-495 -1387 0 -377 62 -652 220 -973 239 -488 681 -894 1194 -1100 311 -124
590 -175 963 -175 394 0 759 66 1133 205 151 56 488 222 623 306 82 51 97 64
91 81 -3 11 -102 215 -220 454 -190 387 -215 434 -231 425 -10 -5 -65 -37
-123 -71 -612 -362 -1091 -480 -1559 -384 -214 43 -440 153 -596 287 l-40 35
75 47 c41 26 208 127 370 226 387 234 434 263 570 346 120 74 1471 895 1645
1000 254 154 371 225 377 231 4 4 -20 52 -53 107 -505 832 -1301 1247 -2272
1185z m383 -931 c174 -27 387 -132 487 -240 l21 -24 -974 -585 c-536 -322
-982 -587 -991 -589 -14 -3 -15 16 -10 190 5 157 10 214 31 300 70 301 230
546 474 727 264 195 608 274 962 221z"/>
</g>
</svg>
