<?xml version="1.0" standalone="no"?>
<!DOCTYPE svg PUBLIC "-//W3C//DTD SVG 20010904//EN"
 "http://www.w3.org/TR/2001/REC-SVG-20010904/DTD/svg10.dtd">
<svg version="1.0" xmlns="http://www.w3.org/2000/svg"
 width="142.000000pt" height="142.000000pt" viewBox="0 0 142.000000 142.000000"
 preserveAspectRatio="xMidYMid meet">
<metadata>
Created by potrace 1.14, written by Peter Selinger 2001-2017
</metadata>
<g transform="translate(0.000000,142.000000) scale(0.100000,-0.100000)"
fill="#000000" stroke="none">
<path d="M1180 1101 c-79 -24 -155 -97 -185 -178 -10 -28 -32 -62 -53 -80
l-37 -33 28 0 c15 0 27 -6 27 -12 0 -7 -16 -80 -35 -163 -38 -164 -78 -259
-126 -299 -21 -18 -26 -26 -14 -26 27 0 113 89 138 144 14 28 39 112 56 186
41 169 45 180 73 180 13 0 41 12 63 25 l40 25 -57 0 c-49 0 -58 3 -58 18 1 31
37 96 74 131 30 29 43 35 83 35 33 1 47 -3 46 -11 -4 -20 6 -16 49 19 36 28
38 33 22 39 -25 10 -102 9 -134 0z"/>
<path d="M414 1031 c-2 -2 -4 -112 -4 -243 l0 -238 45 0 45 0 0 245 0 245 -41
-2 c-22 -2 -42 -5 -45 -7z"/>
<path d="M102 889 c-65 -33 -97 -87 -97 -165 0 -55 4 -67 31 -101 17 -21 46
-47 64 -57 46 -27 140 -26 203 2 l48 21 -17 33 c-9 18 -18 34 -19 36 -1 1 -18
-4 -37 -12 -56 -24 -88 -26 -126 -10 -19 8 -33 16 -31 18 2 2 58 36 124 76 66
40 122 74 124 76 9 8 -65 77 -96 90 -48 21 -121 17 -171 -7z m141 -68 c5 -5
-26 -30 -68 -55 -43 -26 -79 -45 -82 -42 -3 2 -2 18 2 34 7 33 39 67 70 75 23
6 66 -1 78 -12z"/>
<path d="M573 893 c-3 -6 -3 -72 -1 -145 4 -155 15 -181 80 -198 43 -12 69 -7
111 22 l27 19 0 -26 c0 -21 4 -26 16 -21 9 3 27 6 40 6 l24 0 0 180 0 180 -45
-2 -45 -3 0 -112 c0 -128 -10 -159 -52 -169 -54 -11 -63 9 -63 154 l-1 127
-43 0 c-26 1 -45 -4 -48 -12z"/>
<path d="M1188 898 c-8 -7 -18 -28 -22 -46 l-6 -34 33 9 c38 9 117 7 128 -4 4
-4 9 -17 11 -28 2 -15 -2 -19 -17 -16 -11 2 -43 4 -71 4 -107 2 -162 -91 -108
-183 33 -54 141 -74 185 -34 18 16 19 16 19 -6 0 -16 4 -21 16 -16 9 3 27 6
40 6 l24 0 0 140 c0 152 -8 183 -51 206 -35 18 -159 19 -181 2z m132 -198 c33
-33 6 -80 -46 -80 -40 0 -77 31 -67 57 15 45 78 58 113 23z"/>
</g>
</svg>
