<?xml version="1.0" encoding="utf-8"?>
<!-- Generator: Adobe Illustrator 22.0.0, SVG Export Plug-In . SVG Version: 6.00 Build 0)  -->
<svg version="1.1" xmlns="http://www.w3.org/2000/svg" xmlns:xlink="http://www.w3.org/1999/xlink" x="0px" y="0px"
	 viewBox="0 0 1492.2 1666.2" style="enable-background:new 0 0 1492.2 1666.2;" xml:space="preserve">
<style type="text/css">
	.st0{fill:#C0DAFF;}
	.st1{fill:#66A2FF;}
	.st2{fill:#012C59;}
	.st3{fill:#D1F5FF;}
	.st4{fill:#B20932;}
	.st5{fill:none;stroke:#B3D1FF;stroke-width:4;stroke-linejoin:round;stroke-miterlimit:10;}
	.st6{fill:none;stroke:#003880;stroke-width:4;stroke-miterlimit:10;}
	.st7{fill:#FFFFFF;}
	.st8{fill:#80B2FF;}
	.st9{fill:#005CEA;}
	.st10{fill:#4D4D4D;}
	.st11{fill:#D9FFFF;}
	.st12{fill:#4D93FF;}
	.st13{fill:#012A57;}
</style>
<g id="BG">
</g>
<g id="shadow">
</g>
<g id="elements">
	<path class="st0" d="M590.5,440.5h-14.3c-1.1,0-1.9-0.9-1.9-1.9c0-1.1,0.9-1.9,1.9-1.9h14.3c1.1,0,1.9,0.9,1.9,1.9
		C592.5,439.6,591.6,440.5,590.5,440.5z M561.9,440.5h-14.3c-1.1,0-1.9-0.9-1.9-1.9c0-1.1,0.9-1.9,1.9-1.9h14.3
		c1.1,0,1.9,0.9,1.9,1.9C563.8,439.6,563,440.5,561.9,440.5z M533.3,440.5H519c-1.1,0-1.9-0.9-1.9-1.9c0-1.1,0.9-1.9,1.9-1.9h14.3
		c1.1,0,1.9,0.9,1.9,1.9C535.2,439.6,534.3,440.5,533.3,440.5z M504.6,440.5h-14.3c-1.1,0-1.9-0.9-1.9-1.9c0-1.1,0.9-1.9,1.9-1.9
		h14.3c1.1,0,1.9,0.9,1.9,1.9C506.6,439.6,505.7,440.5,504.6,440.5z M476,440.5h-14.3c-1.1,0-1.9-0.9-1.9-1.9c0-1.1,0.9-1.9,1.9-1.9
		H476c1.1,0,1.9,0.9,1.9,1.9C477.9,439.6,477.1,440.5,476,440.5z M447.4,440.5h-14.3c-1.1,0-1.9-0.9-1.9-1.9c0-1.1,0.9-1.9,1.9-1.9
		h14.3c1.1,0,1.9,0.9,1.9,1.9C449.3,439.6,448.4,440.5,447.4,440.5z M418.7,440.5h-14.3c-1.1,0-1.9-0.9-1.9-1.9
		c0-1.1,0.9-1.9,1.9-1.9h14.3c1.1,0,1.9,0.9,1.9,1.9C420.7,439.6,419.8,440.5,418.7,440.5z M390.1,440.5h-14.3
		c-1.1,0-1.9-0.9-1.9-1.9c0-1.1,0.9-1.9,1.9-1.9h14.3c1.1,0,1.9,0.9,1.9,1.9C392,439.6,391.2,440.5,390.1,440.5z M361.5,440.5h-14.3
		c-1.1,0-1.9-0.9-1.9-1.9c0-1.1,0.9-1.9,1.9-1.9h14.3c1.1,0,1.9,0.9,1.9,1.9C363.4,439.6,362.5,440.5,361.5,440.5z M332.8,440.5
		h-14.3c-1.1,0-1.9-0.9-1.9-1.9c0-1.1,0.9-1.9,1.9-1.9h14.3c1.1,0,1.9,0.9,1.9,1.9C334.7,439.6,333.9,440.5,332.8,440.5z
		 M304.2,440.5h-14.3c-1.1,0-1.9-0.9-1.9-1.9c0-1.1,0.9-1.9,1.9-1.9h14.3c1.1,0,1.9,0.9,1.9,1.9
		C306.1,439.6,305.3,440.5,304.2,440.5z M275.6,440.5h-14.3c-1.1,0-1.9-0.9-1.9-1.9c0-1.1,0.9-1.9,1.9-1.9h14.3
		c1.1,0,1.9,0.9,1.9,1.9C277.5,439.6,276.6,440.5,275.6,440.5z M246.9,440.5h-14.3c-1.1,0-1.9-0.9-1.9-1.9c0-1.1,0.9-1.9,1.9-1.9
		h14.3c1.1,0,1.9,0.9,1.9,1.9C248.8,439.6,248,440.5,246.9,440.5z M218.3,440.5H204c-1.1,0-1.9-0.9-1.9-1.9c0-1.1,0.9-1.9,1.9-1.9
		h14.3c1.1,0,1.9,0.9,1.9,1.9C220.2,439.6,219.3,440.5,218.3,440.5z M189.7,440.5h-14.3c-1.1,0-1.9-0.9-1.9-1.9
		c0-1.1,0.9-1.9,1.9-1.9h14.3c1.1,0,1.9,0.9,1.9,1.9C191.6,439.6,190.7,440.5,189.7,440.5z M161,440.5h-14.3c-1.1,0-1.9-0.9-1.9-1.9
		c0-1.1,0.9-1.9,1.9-1.9H161c1.1,0,1.9,0.9,1.9,1.9C162.9,439.6,162.1,440.5,161,440.5z M132.4,440.5h-14.3c-1.1,0-1.9-0.9-1.9-1.9
		c0-1.1,0.9-1.9,1.9-1.9h14.3c1.1,0,1.9,0.9,1.9,1.9C134.3,439.6,133.4,440.5,132.4,440.5z M103.7,440.5H89.4
		c-1.1,0-1.9-0.9-1.9-1.9c0-1.1,0.9-1.9,1.9-1.9h14.3c1.1,0,1.9,0.9,1.9,1.9C105.7,439.6,104.8,440.5,103.7,440.5z M75.1,440.5h-2.3
		c-4.5,0-8.9-1.6-12.3-4.5c-0.8-0.7-0.9-1.9-0.2-2.7c0.7-0.8,1.9-0.9,2.7-0.2c2.7,2.3,6.1,3.6,9.8,3.6h2.3c1.1,0,1.9,0.9,1.9,1.9
		C77,439.6,76.2,440.5,75.1,440.5z M604.1,437.1c-0.6,0-1.2-0.3-1.5-0.8c-0.6-0.8-0.5-2,0.4-2.7c3.5-2.6,5.5-6.6,5.5-10.8
		c0-1.1,0.9-1.9,1.9-1.9c0,0,0,0,0,0c1.1,0,1.9,0.9,1.9,1.9c0,5.4-2.6,10.5-7,13.8C604.9,437,604.5,437.1,604.1,437.1z M56.3,423.8
		c-1.1,0-1.9-0.9-1.9-1.9v-14.3c0-1.1,0.9-1.9,1.9-1.9s1.9,0.9,1.9,1.9v14.3C58.2,422.9,57.4,423.8,56.3,423.8z M610.4,410.5
		c-1.1,0-1.9-0.9-1.9-1.9v-14.3c0-1.1,0.9-1.9,1.9-1.9c1.1,0,1.9,0.9,1.9,1.9v14.3C612.3,409.6,611.4,410.5,610.4,410.5z
		 M56.3,395.1c-1.1,0-1.9-0.9-1.9-1.9v-14.3c0-1.1,0.9-1.9,1.9-1.9s1.9,0.9,1.9,1.9v14.3C58.2,394.3,57.4,395.1,56.3,395.1z
		 M610.4,381.8c-1.1,0-1.9-0.9-1.9-1.9v-14.3c0-1.1,0.9-1.9,1.9-1.9c1.1,0,1.9,0.9,1.9,1.9v14.3C612.3,381,611.4,381.8,610.4,381.8z
		 M56.3,366.5c-1.1,0-1.9-0.9-1.9-1.9v-14.3c0-1.1,0.9-1.9,1.9-1.9s1.9,0.9,1.9,1.9v14.3C58.2,365.6,57.4,366.5,56.3,366.5z
		 M610.4,353.2c-1.1,0-1.9-0.9-1.9-1.9V337c0-1.1,0.9-1.9,1.9-1.9c1.1,0,1.9,0.9,1.9,1.9v14.3C612.3,352.3,611.4,353.2,610.4,353.2z
		 M56.3,337.9c-1.1,0-1.9-0.9-1.9-1.9v-14.3c0-1.1,0.9-1.9,1.9-1.9s1.9,0.9,1.9,1.9v14.3C58.2,337,57.4,337.9,56.3,337.9z
		 M610.4,324.6c-1.1,0-1.9-0.9-1.9-1.9v-14.3c0-1.1,0.9-1.9,1.9-1.9c1.1,0,1.9,0.9,1.9,1.9v14.3
		C612.3,323.7,611.4,324.6,610.4,324.6z M56.3,309.2c-1.1,0-1.9-0.9-1.9-1.9V293c0-1.1,0.9-1.9,1.9-1.9s1.9,0.9,1.9,1.9v14.3
		C58.2,308.4,57.4,309.2,56.3,309.2z M610.4,295.9c-1.1,0-1.9-0.9-1.9-1.9v-14.3c0-1.1,0.9-1.9,1.9-1.9c1.1,0,1.9,0.9,1.9,1.9V294
		C612.3,295.1,611.4,295.9,610.4,295.9z M56.3,280.6c-1.1,0-1.9-0.9-1.9-1.9v-14.3c0-1.1,0.9-1.9,1.9-1.9s1.9,0.9,1.9,1.9v14.3
		C58.2,279.7,57.4,280.6,56.3,280.6z M610.4,267.3c-1.1,0-1.9-0.9-1.9-1.9v-14.3c0-1.1,0.9-1.9,1.9-1.9c1.1,0,1.9,0.9,1.9,1.9v14.3
		C612.3,266.4,611.4,267.3,610.4,267.3z M56.3,252c-1.1,0-1.9-0.9-1.9-1.9v-14.3c0-1.1,0.9-1.9,1.9-1.9s1.9,0.9,1.9,1.9V250
		C58.2,251.1,57.4,252,56.3,252z M610.4,238.7c-1.1,0-1.9-0.9-1.9-1.9v-14.3c0-1.1,0.9-1.9,1.9-1.9c1.1,0,1.9,0.9,1.9,1.9v14.3
		C612.3,237.8,611.4,238.7,610.4,238.7z M56.3,223.3c-1.1,0-1.9-0.9-1.9-1.9v-14.3c0-1.1,0.9-1.9,1.9-1.9s1.9,0.9,1.9,1.9v14.3
		C58.2,222.5,57.4,223.3,56.3,223.3z M610.4,210c-1.1,0-1.9-0.9-1.9-1.9v-14.3c0-1.1,0.9-1.9,1.9-1.9c1.1,0,1.9,0.9,1.9,1.9v14.3
		C612.3,209.2,611.4,210,610.4,210z M56.3,194.7c-1.1,0-1.9-0.9-1.9-1.9v-14.3c0-1.1,0.9-1.9,1.9-1.9s1.9,0.9,1.9,1.9v14.3
		C58.2,193.8,57.4,194.7,56.3,194.7z M610.4,181.4c-1.1,0-1.9-0.9-1.9-1.9v-14.3c0-1.1,0.9-1.9,1.9-1.9c1.1,0,1.9,0.9,1.9,1.9v14.3
		C612.3,180.5,611.4,181.4,610.4,181.4z M56.3,166.1c-1.1,0-1.9-0.9-1.9-1.9v-14.3c0-1.1,0.9-2,1.9-2s1.9,0.8,1.9,1.9v14.4
		C58.2,165.2,57.4,166.1,56.3,166.1z M610.4,152.8c-1.1,0-1.9-0.9-1.9-1.9v-1c0-3.9-1.7-7.6-4.8-10.2c-0.8-0.7-0.9-1.9-0.2-2.7
		c0.7-0.8,1.9-0.9,2.7-0.2c3.9,3.3,6.1,8.1,6.1,13.1v1C612.3,151.9,611.4,152.8,610.4,152.8z M62.6,139.4c-0.6,0-1.2-0.3-1.5-0.8
		c-0.6-0.8-0.5-2,0.4-2.7c3.3-2.5,7.2-3.8,11.4-3.8h3.4c1.1,0,1.9,0.9,1.9,1.9c0,1.1-0.9,1.9-1.9,1.9h-3.4c-3.3,0-6.4,1-9,3
		C63.4,139.2,63,139.4,62.6,139.4z M591.6,136h-14.3c-1.1,0-1.9-0.9-1.9-1.9c0-1.1,0.9-1.9,1.9-1.9h14.3c1.1,0,1.9,0.9,1.9,1.9
		C593.5,135.1,592.7,136,591.6,136z M563,136h-14.3c-1.1,0-1.9-0.9-1.9-1.9c0-1.1,0.9-1.9,1.9-1.9H563c1.1,0,1.9,0.9,1.9,1.9
		C564.9,135.1,564,136,563,136z M534.3,136H520c-1.1,0-1.9-0.9-1.9-1.9c0-1.1,0.9-1.9,1.9-1.9h14.3c1.1,0,1.9,0.9,1.9,1.9
		C536.2,135.1,535.4,136,534.3,136z M505.7,136h-14.3c-1.1,0-1.9-0.9-1.9-1.9c0-1.1,0.9-1.9,1.9-1.9h14.3c1.1,0,1.9,0.9,1.9,1.9
		C507.6,135.1,506.8,136,505.7,136z M477.1,136h-14.3c-1.1,0-1.9-0.9-1.9-1.9c0-1.1,0.9-1.9,1.9-1.9h14.3c1.1,0,1.9,0.9,1.9,1.9
		C479,135.1,478.1,136,477.1,136z M448.4,136h-14.3c-1.1,0-1.9-0.9-1.9-1.9c0-1.1,0.9-1.9,1.9-1.9h14.3c1.1,0,1.9,0.9,1.9,1.9
		C450.3,135.1,449.5,136,448.4,136z M419.8,136h-14.3c-1.1,0-1.9-0.9-1.9-1.9c0-1.1,0.9-1.9,1.9-1.9h14.3c1.1,0,1.9,0.9,1.9,1.9
		C421.7,135.1,420.8,136,419.8,136z M391.2,136h-14.3c-1.1,0-1.9-0.9-1.9-1.9c0-1.1,0.9-1.9,1.9-1.9h14.3c1.1,0,1.9,0.9,1.9,1.9
		C393.1,135.1,392.2,136,391.2,136z M362.5,136h-14.3c-1.1,0-1.9-0.9-1.9-1.9c0-1.1,0.9-1.9,1.9-1.9h14.3c1.1,0,1.9,0.9,1.9,1.9
		C364.4,135.1,363.6,136,362.5,136z M333.9,136h-14.3c-1.1,0-1.9-0.9-1.9-1.9c0-1.1,0.9-1.9,1.9-1.9h14.3c1.1,0,1.9,0.9,1.9,1.9
		C335.8,135.1,334.9,136,333.9,136z M305.2,136h-14.3c-1.1,0-1.9-0.9-1.9-1.9c0-1.1,0.9-1.9,1.9-1.9h14.3c1.1,0,1.9,0.9,1.9,1.9
		C307.2,135.1,306.3,136,305.2,136z M276.6,136h-14.3c-1.1,0-1.9-0.9-1.9-1.9c0-1.1,0.9-1.9,1.9-1.9h14.3c1.1,0,1.9,0.9,1.9,1.9
		C278.5,135.1,277.7,136,276.6,136z M248,136h-14.3c-1.1,0-1.9-0.9-1.9-1.9c0-1.1,0.9-1.9,1.9-1.9H248c1.1,0,1.9,0.9,1.9,1.9
		C249.9,135.1,249,136,248,136z M219.3,136H205c-1.1,0-1.9-0.9-1.9-1.9c0-1.1,0.9-1.9,1.9-1.9h14.3c1.1,0,1.9,0.9,1.9,1.9
		C221.3,135.1,220.4,136,219.3,136z M190.7,136h-14.3c-1.1,0-1.9-0.9-1.9-1.9c0-1.1,0.9-1.9,1.9-1.9h14.3c1.1,0,1.9,0.9,1.9,1.9
		C192.6,135.1,191.8,136,190.7,136z M162.1,136h-14.3c-1.1,0-1.9-0.9-1.9-1.9c0-1.1,0.9-1.9,1.9-1.9h14.3c1.1,0,1.9,0.9,1.9,1.9
		C164,135.1,163.1,136,162.1,136z M133.4,136h-14.3c-1.1,0-1.9-0.9-1.9-1.9c0-1.1,0.9-1.9,1.9-1.9h14.3c1.1,0,1.9,0.9,1.9,1.9
		C135.4,135.1,134.5,136,133.4,136z M104.8,136H90.5c-1.1,0-1.9-0.9-1.9-1.9c0-1.1,0.9-1.9,1.9-1.9h14.3c1.1,0,1.9,0.9,1.9,1.9
		C106.7,135.1,105.9,136,104.8,136z"/>
	<path class="st1" d="M630.3,394l-509,0c-10.7,0-19.4-8.7-19.4-19.4V85.8c0-10.7,8.7-19.4,19.4-19.4l509,0
		c10.7,0,19.4,8.7,19.4,19.4v288.8C649.7,385.4,641,394,630.3,394z"/>
	<rect x="101.9" y="128.3" class="st2" width="547.8" height="56.5"/>
	<path class="st3" d="M227.4,331.2l-80.6,0c-5.1,0-9.3,4.2-9.3,9.3v0c0,5.1,4.2,9.3,9.3,9.3h80.6c5.1,0,9.3-4.2,9.3-9.3l0,0
		C236.6,335.3,232.5,331.2,227.4,331.2z"/>
	<path class="st3" d="M351.2,331.2h-80.6c-5.1,0-9.3,4.2-9.3,9.3l0,0c0,5.1,4.2,9.3,9.3,9.3h80.6c5.1,0,9.3-4.2,9.3-9.3l0,0
		C360.5,335.3,356.4,331.2,351.2,331.2z"/>
	<path class="st3" d="M475.1,331.2h-80.6c-5.1,0-9.3,4.2-9.3,9.3l0,0c0,5.1,4.2,9.3,9.3,9.3l80.6,0c5.1,0,9.3-4.2,9.3-9.3v0
		C484.4,335.3,480.2,331.2,475.1,331.2z"/>
	<path class="st3" d="M599,331.2l-80.6,0c-5.1,0-9.3,4.2-9.3,9.3v0c0,5.1,4.2,9.3,9.3,9.3H599c5.1,0,9.3-4.2,9.3-9.3l0,0
		C608.3,335.3,604.1,331.2,599,331.2z"/>
	<path class="st3" d="M143.1,83L143.1,83c-5.7,0-10.2,4.6-10.2,10.2v3.6c0,5.7,4.6,10.2,10.2,10.2l0,0c5.7,0,10.2-4.6,10.2-10.2
		v-3.6C153.3,87.6,148.8,83,143.1,83z"/>
	<path class="st3" d="M165.2,95.1L165.2,95.1c0,6.6,5.4,12,12,12h42.6c6.6,0,12-5.4,12-12l0,0c0-6.6-5.4-12-12-12h-42.6
		C170.5,83,165.2,88.4,165.2,95.1z"/>
	<path class="st4" d="M159.6,215.2h55.1c8.8,0,16,7.2,16,16v47.5c0,8.8-7.2,16-16,16l-55.1,0c-8.8,0-16-7.2-16-16v-47.5
		C143.6,222.4,150.7,215.2,159.6,215.2z"/>
	<g id="Gear_1_">
		<g>
			<path class="st5" d="M1229.6,327.3c6.4-25.4,7.5-51,3.8-75.4l7.8-1.2l15.3-2.3l0.2,0c-4.2-28-13.7-54.6-28-78.5l-20.2,12
				c-12.9-21.6-30-40.8-50.7-56l14-18.9c-21.8-16.3-47.3-28.7-75.3-35.8l-5.8,22.9c-25.5-6.4-51-7.5-75.4-3.8l-3.5-23.3
				c-28,4.2-54.6,13.8-78.5,28l12,20.2c-21.6,12.9-40.8,30-56,50.7l-18.9-14c-16.3,21.8-28.7,47.3-35.8,75.3l22.9,5.8
				c-6.4,25.5-7.5,51-3.8,75.4l-16.5,2.5l-6.7,1.1l-0.1,0c4.2,28,13.8,54.6,28,78.5l20.2-12c12.9,21.6,30.1,40.8,50.8,56l-14,18.9
				c21.8,16.3,47.2,28.6,75.2,35.7l5.8-22.9c25.4,6.4,51.1,7.5,75.5,3.8l2.7,18.1l0.8,5.2c28-4.2,54.5-13.8,78.4-28l-12-20.2
				c21.6-12.9,40.8-30.1,56.1-50.7l18.9,14c16.2-21.9,28.5-47.2,35.7-75.3L1229.6,327.3z M1018,381.2
				c-55.8-14.1-89.6-70.8-75.4-126.6c14.1-55.7,70.8-89.5,126.6-75.3c55.7,14.1,89.5,70.8,75.4,126.5
				C1130.4,361.6,1073.7,395.3,1018,381.2z"/>
		</g>
		<g>
			<path class="st5" d="M1319.4,536.3c-8.6-10.8-19-19.4-30.4-25.6l2-3.6l3.9-7.2l0-0.1c-13-7.2-27.3-11.7-41.8-13.3l-1.4,12.3
				c-13.2-1.5-26.7-0.4-39.6,3.4l-3.5-11.9c-13.8,4-27.1,10.7-39,20.2l7.7,9.7c-10.8,8.6-19.4,19-25.6,30.4l-10.9-5.9
				c-7.2,13-11.6,27.3-13.3,41.8l12.3,1.4c-1.5,13.2-0.4,26.7,3.4,39.6l-11.9,3.5c4,13.8,10.7,27.1,20.2,39l9.7-7.7
				c8.6,10.8,19,19.4,30.4,25.6l-4.2,7.7l-1.7,3.2l0,0c13,7.2,27.3,11.6,41.8,13.3l1.4-12.3c13.2,1.5,26.7,0.4,39.6-3.4l3.5,11.9
				c13.8-4,27-10.7,39-20.1l-7.7-9.7c10.8-8.6,19.4-19,25.7-30.4l8.4,4.6l2.4,1.3c7.2-13,11.6-27.3,13.2-41.8l-12.3-1.4
				c1.5-13.2,0.4-26.7-3.4-39.7l11.9-3.5c-4-13.8-10.7-27-20.2-38.9L1319.4,536.3z M1274.5,642.1c-23.7,18.9-58.2,15-77.1-8.7
				c-18.9-23.7-15-58.2,8.8-77.1c23.7-18.9,58.2-15,77,8.7C1302.1,588.8,1298.2,623.3,1274.5,642.1z"/>
		</g>
		<g>
			<path class="st6" d="M443.3,1102c-9.9-12.4-21.9-22.4-35.1-29.6l2.3-4.2l4.5-8.3l0.1-0.1c-15-8.3-31.5-13.4-48.3-15.3l-1.6,14.2
				c-15.2-1.7-30.8-0.5-45.7,3.9l-4-13.7c-15.9,4.6-31.2,12.3-45,23.3l8.9,11.2c-12.5,9.9-22.4,21.9-29.6,35.1l-12.5-6.9
				c-8.3,15-13.4,31.5-15.3,48.3l14.2,1.6c-1.7,15.2-0.5,30.8,3.9,45.7l-13.7,4c4.6,15.9,12.3,31.2,23.3,45l11.2-8.9
				c9.9,12.5,21.9,22.4,35.1,29.6l-4.9,8.9l-2,3.6l0,0c15,8.3,31.5,13.4,48.3,15.3l1.6-14.2c15.2,1.7,30.8,0.4,45.7-4l4,13.7
				c15.9-4.6,31.2-12.3,45-23.2l-8.9-11.2c12.5-9.9,22.4-21.9,29.6-35.1l9.7,5.4l2.8,1.5c8.3-15,13.4-31.5,15.3-48.2l-14.2-1.6
				c1.7-15.2,0.4-30.8-3.9-45.8l13.7-4c-4.6-15.9-12.3-31.2-23.3-44.9L443.3,1102z M391.6,1224.2c-27.4,21.8-67.2,17.3-89-10.1
				c-21.8-27.3-17.3-67.1,10.1-88.9c27.3-21.8,67.1-17.3,88.9,10.1C423.4,1162.6,418.9,1202.4,391.6,1224.2z"/>
		</g>
	</g>
</g>
<g id="phone">
	<path class="st1" d="M1042.7,278.2c-11.1-65.8-112.4-95.5-110.4-52.5l-464.4,2.7c-32.2,0.2-58.2,29.1-58.3,64.7l-1,1221.4
		c0,36.8,26.5,66.9,59.3,67.2l474.1,4.1c2.9,6.2,8.4,11.8,17.1,16.5c54.4,1.2,80.4-25.7,90-56c3.1-8.1,4.8-17.2,4.7-26.6
		C1051.9,1503.5,1046.1,293.6,1042.7,278.2z"/>
	<path class="st7" d="M954.1,1602.3l-544.2-3.5c-34-0.2-61.4-31.1-61.4-69l2-1256.1c0.1-36.5,27.1-66.2,60.4-66.3l533.6-1.7
		c33.6-0.1,61,29.5,61.3,66.2l9.7,1261.9C1015.8,1571.8,988.3,1602.5,954.1,1602.3z"/>
	<path d="M961.6,1593.2c-2.3,0.3-4.6,0.4-6.9,0.4l-544-4.1c-29.2-0.2-53-27.3-53-60.4l1.9-1254.7c0-31.9,23.5-57.9,52.1-58
		l533.6-2.3c0.8,0,1.7,0,2.5,0.1c13.4,0.6,26,6.7,35.4,17.2c9.6,10.7,14.9,24.9,15,39.9l9.5,1263.2
		C1008,1564.4,988.2,1589.6,961.6,1593.2z"/>
	<polygon class="st2" points="979.5,277.6 988.7,1536.4 375.8,1532.7 377.4,277.6 	"/>
	<path class="st4" d="M766.3,911H602.2c-13.9,0-25.2-11.4-25.2-25.2l0,0c0-13.9,11.4-25.2,25.2-25.2h164.1
		c13.9,0,25.2,11.4,25.2,25.2l0,0C791.5,899.7,780.1,911,766.3,911z"/>
	<path class="st7" d="M891.1,723.6H466.8c-13.9,0-25.2-11.4-25.2-25.2v0c0-13.9,11.4-25.2,25.2-25.2h424.2
		c13.9,0,25.2,11.4,25.2,25.2v0C916.3,712.3,905,723.6,891.1,723.6z"/>
	<path class="st7" d="M891.1,804.9H466.8c-13.9,0-25.2-11.4-25.2-25.2l0,0c0-13.9,11.4-25.2,25.2-25.2h424.2
		c13.9,0,25.2,11.4,25.2,25.2l0,0C916.3,793.6,905,804.9,891.1,804.9z"/>
	<g>
		<path class="st8" d="M546.1,781.9c0,4.9-4,8.9-8.9,8.9c-4.9,0-8.9-4-8.9-8.9s4-8.9,8.9-8.9C542.1,773,546.1,777,546.1,781.9z"/>
		
			<ellipse transform="matrix(0.208 -0.9781 0.9781 0.208 -315.2659 1174.5039)" class="st8" cx="567.6" cy="781.9" rx="8.9" ry="8.9"/>
		
			<ellipse transform="matrix(0.7071 -0.7071 0.7071 0.7071 -377.7286 651.9501)" class="st8" cx="598.1" cy="781.9" rx="8.9" ry="8.9"/>
		
			<ellipse transform="matrix(0.7071 -0.7071 0.7071 0.7071 -368.8051 673.4933)" class="st8" cx="628.6" cy="781.9" rx="8.9" ry="8.9"/>
		
			<ellipse transform="matrix(0.9239 -0.3827 0.3827 0.9239 -249.0668 311.7265)" class="st8" cx="659" cy="781.9" rx="8.9" ry="8.9"/>
		
			<ellipse transform="matrix(0.2298 -0.9732 0.9732 0.2298 -229.9241 1273.3456)" class="st8" cx="689.5" cy="781.9" rx="8.9" ry="8.9"/>
		
			<ellipse transform="matrix(0.7071 -0.7071 0.7071 0.7071 -342.0345 738.1232)" class="st8" cx="720" cy="781.9" rx="8.9" ry="8.9"/>
		
			<ellipse transform="matrix(0.7071 -0.7071 0.7071 0.7071 -333.111 759.6664)" class="st8" cx="750.4" cy="781.9" rx="8.9" ry="8.9"/>
		
			<ellipse transform="matrix(0.9239 -0.3827 0.3827 0.9239 -239.7902 358.3631)" class="st8" cx="780.9" cy="781.9" rx="8.9" ry="8.9"/>
	</g>
	<g>
		
			<ellipse transform="matrix(0.7071 -0.7071 0.7071 0.7071 -158.1984 628.1136)" class="st7" cx="679.1" cy="505" rx="97.5" ry="97.5"/>
		<g>
			<g>
				<path class="st9" d="M679.2,501.1c9.5,0,18.3-4.6,23.9-11.7c4.1-5.1,6.6-11.7,6.6-19c0-16.8-13.7-30.8-30.5-30.8
					c-17.1,0-30.8,13.9-30.8,30.8c0,7.3,2.4,13.9,6.6,19C660.7,496.5,669.5,501.1,679.2,501.1z"/>
			</g>
			<path class="st9" d="M733.3,555.9c0,19.4-108.4,19.4-108.4,0l0-22.6c4.3-30.9,99.6-32.2,108.4,0L733.3,555.9z"/>
		</g>
	</g>
	<path class="st10" d="M487.9,775v-1.4c0-5.5-4.5-9.9-9.9-9.9c-5.5,0-9.9,4.5-9.9,9.9v1.4h-1.5v17.9c0,3.1,22.9,3.1,22.9,0V775
		H487.9z M471.6,773.7c0-3.4,2.1-6.6,6.4-6.6c4.3,0,6.5,2.9,6.5,6.6v1.4h-12.9V773.7z M479.6,784.1v5.2c0,0.9-0.8,1.6-1.7,1.6
		c-0.9,0-1.6-0.7-1.6-1.6v-5.2c-0.9-0.5-1.6-1.5-1.6-2.7c0-1.7,1.5-3.2,3.2-3.2c1.7,0,3.2,1.5,3.2,3.2
		C481.1,782.6,480.4,783.5,479.6,784.1z"/>
	<g>
		<g>
			<g>
				<path class="st10" d="M478,696.6c2,0,3.9-1,5-2.5c0.9-1.1,1.4-2.5,1.4-4c0-3.6-2.9-6.5-6.4-6.5c-3.6,0-6.5,2.9-6.5,6.5
					c0,1.5,0.5,2.9,1.4,4C474.1,695.6,475.9,696.6,478,696.6z"/>
			</g>
			<path class="st10" d="M489.4,708.1c0,4.1-23,4.1-23,0l0.1-4.8c0.9-6.5,21-6.8,22.9,0L489.4,708.1z"/>
		</g>
		<path class="st8" d="M626.6,705.8h-93c-4.1,0-7.4-3.3-7.4-7.4l0,0c0-4.1,3.3-7.4,7.4-7.4h93c4.1,0,7.4,3.3,7.4,7.4l0,0
			C634,702.5,630.6,705.8,626.6,705.8z"/>
		<path class="st8" d="M749.2,705.8h-93c-4.1,0-7.4-3.3-7.4-7.4l0,0c0-4.1,3.3-7.4,7.4-7.4h93c4.1,0,7.4,3.3,7.4,7.4l0,0
			C756.6,702.5,753.3,705.8,749.2,705.8z"/>
	</g>
	<g id="key">
		<path class="st7" d="M553.9,1171.4v183.9c0,20.4,250,20.4,250,0v-183.9H553.9z"/>
		<g>
			
				<ellipse transform="matrix(0.2298 -0.9732 0.9732 0.2298 -684.7157 1616.5774)" class="st9" cx="679" cy="1240.9" rx="30.9" ry="30.9"/>
			<path class="st9" d="M679,1333.8L679,1333.8c-7,0-12.7-5.7-12.7-12.7v-70.8h25.3v70.8C691.6,1328.2,685.9,1333.8,679,1333.8z"/>
		</g>
		<path class="st7" d="M782.1,1158.3h-25.3v-12.4c0-42.9-34.9-77.8-77.8-77.8c-42.9,0-77.8,34.9-77.8,77.8v12.4h-25.3v-12.4
			c0-56.9,46.3-103.1,103.1-103.1c56.8,0,103.1,46.3,103.1,103.1V1158.3z"/>
	</g>
</g>
<g id="shield">
	<g>
		<g>
			<path class="st11" d="M888.1,949.6L888.1,949.6c0-1,0-1.4,0-1.5C888.1,948.3,888.1,949.6,888.1,949.6z"/>
			<path class="st11" d="M888.1,949.6L888.1,949.6c0-1,0-1.4,0-1.5C888.1,948.3,888.1,949.6,888.1,949.6z"/>
			<path class="st11" d="M1470.4,952.2c0,0,0-1.3,0-1.5C1470.4,950.8,1470.4,951.3,1470.4,952.2L1470.4,952.2z"/>
			<path class="st11" d="M1470.4,952.2c0,0,0-1.3,0-1.5C1470.4,950.8,1470.4,951.3,1470.4,952.2L1470.4,952.2z"/>
			<path class="st7" d="M1180.3,812.8c-64.5,69.1-167.3,125.6-277.4,149.8c0,7.4-0.2,48.1-1.1,235.8
				c-1.1,250.4,237.2,372.8,274.2,391.6c35.9-16.5,277.2-138.7,278.3-389.1c0.8-187.7,1-228.5,1.1-235.8
				C1345.6,939.9,1244.2,882.4,1180.3,812.8z"/>
		</g>
	</g>
	<g>
		<path class="st8" d="M1179.7,840c-66.5,61-158.5,108.9-259.8,135l-1,223.4c-0.5,102.2,40.1,194.7,120.7,274.8
			c52.9,52.7,108.6,85.3,136.8,100c1.2-0.6,2.5-1.3,3.9-2V840.5C1180.1,840.3,1179.9,840.1,1179.7,840z"/>
		<path class="st12" d="M1180.3,840.5v730.7c29.4-15.3,82.7-46.8,133.8-96.8c81.3-79.4,122.7-171.5,123.1-273.7l1-223.4
			C1337.6,950.3,1246.2,901.8,1180.3,840.5z"/>
	</g>
	<path class="st13" d="M1383.2,1064.4c-77.1,11.9-182,82.2-248.2,166.7c-9.3-39.9-51-76.2-72.8-84.2l-66.1,66.4
		c41.3,18.6,86.4,71.3,92.3,125.2l66,10.2c27.8-55,99.7-186.5,242.7-257.2C1394.4,1080.8,1384.3,1065.9,1383.2,1064.4z"/>
</g>
<g id="lady">
	
		<image style="overflow:visible;" width="142" height="80" xlink:href="logo.png"  transform="matrix(3.659 0 0 3.659 -1992.1237 340.1508)">
	</image>
</g>
</svg>
